<?xml version="1.0" standalone="no"?>
<!DOCTYPE svg PUBLIC "-//W3C//DTD SVG 20010904//EN"
 "http://www.w3.org/TR/2001/REC-SVG-20010904/DTD/svg10.dtd">
<svg version="1.0" xmlns="http://www.w3.org/2000/svg"
 width="16.000000pt" height="16.000000pt" viewBox="0 0 16.000000 16.000000"
 preserveAspectRatio="xMidYMid meet">
<metadata>
Created by potrace 1.11, written by Peter Selinger 2001-2013
</metadata>
<g transform="translate(0.000000,16.000000) scale(0.003125,-0.003125)"
fill="#000000" stroke="none">
<path d="M0 2560 l0 -2560 2560 0 2560 0 0 2560 0 2560 -2560 0 -2560 0 0
-2560z m3190 1725 l0 -555 615 0 615 0 0 -420 0 -420 -617 0 -616 0 6 -532 c9
-707 23 -891 78 -1005 98 -203 400 -287 692 -193 54 17 106 28 117 25 28 -9
56 -48 80 -113 23 -59 180 -593 180 -608 0 -13 -223 -109 -295 -128 -151 -38
-258 -50 -475 -50 -156 0 -246 5 -327 17 -297 46 -427 109 -635 306 -262 248
-319 429 -348 1106 -5 127 -10 881 -10 1678 l0 1447 470 0 470 0 0 -555z
m-1793 -430 c139 -33 264 -119 342 -235 221 -332 37 -783 -354 -865 -190 -40
-362 13 -506 155 -115 113 -169 241 -169 398 1 306 250 558 555 561 39 0 98
-6 132 -14z"/>
</g>
</svg>
