<?xml version="1.0" standalone="no"?>
<!DOCTYPE svg PUBLIC "-//W3C//DTD SVG 20010904//EN"
 "http://www.w3.org/TR/2001/REC-SVG-20010904/DTD/svg10.dtd">
<svg version="1.0" xmlns="http://www.w3.org/2000/svg"
 width="1020.000000pt" height="1020.000000pt" viewBox="0 0 1020.000000 1020.000000"
 preserveAspectRatio="xMidYMid meet">
<metadata>
Created by potrace 1.11, written by Peter Selinger 2001-2013
</metadata>
<g transform="translate(0.000000,1020.000000) scale(0.100000,-0.100000)"
fill="#000000" stroke="none">
<path d="M6240 10140 c-108 -47 -123 -54 -320 -135 -63 -27 -144 -60 -180 -76
-36 -15 -218 -91 -405 -169 -187 -78 -353 -148 -370 -156 -16 -7 -70 -29 -120
-49 -49 -21 -103 -43 -120 -50 -16 -8 -70 -30 -120 -50 -49 -20 -99 -41 -110
-46 -11 -5 -94 -40 -185 -78 l-165 -69 0 -3299 c0 -1814 4 -3336 8 -3383 50
-526 192 -975 429 -1354 114 -182 257 -351 442 -521 183 -169 492 -356 768
-466 92 -37 331 -113 388 -124 8 -2 33 -8 55 -13 44 -12 60 -15 185 -38 152
-27 177 -30 385 -51 159 -15 678 -8 795 11 14 2 66 10 115 16 109 15 93 12
240 45 298 67 602 183 862 329 l81 46 -18 58 c-10 31 -39 122 -65 202 -26 80
-57 179 -70 220 -13 41 -34 109 -48 150 -14 41 -53 163 -87 270 -34 107 -70
220 -80 250 -15 46 -138 430 -171 538 -12 37 -14 38 -54 14 -81 -49 -327 -135
-450 -156 -219 -39 -485 -53 -650 -35 -283 32 -541 170 -680 364 -70 98 -124
213 -151 315 -17 70 -18 75 -33 165 -6 37 -10 635 -10 1542 l-1 1482 1287 0
c709 0 1309 0 1336 0 l47 1 0 920 0 920 -882 0 c-486 0 -1087 0 -1335 0 l-453
0 0 1245 c0 990 -3 1245 -12 1244 -7 -1 -42 -14 -78 -29z"/>
<path d="M2067 7794 c-222 -40 -416 -142 -578 -303 -175 -175 -280 -393 -306
-631 -13 -117 -5 -274 16 -347 5 -18 8 -33 6 -33 -2 0 7 -30 19 -68 151 -443
550 -741 1001 -745 134 -2 215 8 320 38 245 71 469 236 606 445 119 181 178
387 174 605 -3 113 -5 130 -30 237 -55 239 -218 476 -425 621 -111 77 -274
150 -385 171 -16 4 -41 9 -55 13 -53 13 -286 11 -363 -3z"/>
</g>
</svg>
